<svg width="960" height="630" xmlns="http://www.w3.org/2000/svg">

 <g>
  <title>background</title>
  <rect fill="none" id="canvas_background" height="632" width="962" y="-1" x="-1"/>
 </g>
 <g>
  <title>Layer 1</title>
  <g stroke="null" id="svg_1">
   <path stroke="null" id="svg_2" d="m929.169444,198.014764c-60.565108,-56.771227 -131.169015,-100.734149 -209.850875,-130.669529c-75.988708,-28.91066 -156.256987,-43.568256 -238.57483,-43.568256s-162.586122,14.657596 -238.57483,43.568256c-78.680357,29.933971 -149.284263,73.898302 -209.849372,130.669529c-20.259545,18.991869 -20.259545,49.780009 0,68.771879s53.108188,18.98905 73.36623,0c206.807357,-193.852662 543.308585,-193.852662 750.114439,0c10.130525,9.494525 23.40682,14.241788 36.684619,14.241788s26.55259,-4.747263 36.684619,-14.241788c20.259545,-18.991869 20.259545,-49.781419 0,-68.771879z" fill="#29ABE2"/>
   <path stroke="null" id="svg_3" d="m480.745243,195.97237c-127.035304,0 -246.527975,46.428171 -336.466643,130.732958c-20.259545,18.991869 -20.259545,49.780009 0,68.771879c20.259545,18.99046 53.106685,18.99046 73.36623,0c145.075366,-135.989057 381.125459,-135.989057 526.200826,0c10.129021,9.494525 23.40682,14.241788 36.683115,14.241788s26.554094,-4.747263 36.683115,-14.241788c20.259545,-18.991869 20.259545,-49.780009 0,-68.771879c-89.940171,-84.303377 -209.431339,-130.732958 -336.466643,-130.732958z" fill="#29ABE2"/>
   <path stroke="null" id="svg_4" d="m480.745243,371.83674c-77.639786,0 -150.667681,28.372223 -205.629949,79.89158c-20.259545,18.991869 -20.259545,49.780009 0,68.771879c20.258042,18.98905 53.105181,18.98905 73.36623,0c72.930153,-68.361708 191.595781,-68.361708 264.525934,0c10.129021,9.494525 23.405316,14.241788 36.683115,14.241788c13.276295,0 26.554094,-4.747263 36.683115,-14.241788c20.259545,-18.991869 20.259545,-49.780009 0,-68.771879c-54.962268,-51.519357 -127.990162,-79.89158 -205.628445,-79.89158z" fill="#29ABE2"/>
   <circle stroke="null" id="svg_5" r="40.385586" cy="578.837403" cx="480.530211" fill="#29ABE2"/>
  </g>
 </g>
</svg>